<?xml version="1.0" standalone="no"?>
<!DOCTYPE svg PUBLIC "-//W3C//DTD SVG 20010904//EN"
 "http://www.w3.org/TR/2001/REC-SVG-20010904/DTD/svg10.dtd">
<svg version="1.0" xmlns="http://www.w3.org/2000/svg"
 width="1280.000000pt" height="853.000000pt" viewBox="0 0 1280.000000 853.000000"
 preserveAspectRatio="xMidYMid meet">

<g transform="translate(0.000000,853.000000) scale(0.100000,-0.100000)"
fill="#000000" stroke="none">
<path d="M6185 7455 c-5 -2 -44 -14 -85 -26 -41 -13 -84 -31 -94 -41 -11 -10
-28 -21 -39 -24 -38 -12 -147 -102 -147 -122 0 -3 -10 -17 -22 -31 -13 -14 -4
-9 19 11 50 44 80 61 93 53 5 -3 20 -1 32 6 12 6 72 14 132 16 100 4 109 3 91
-11 -11 -8 -17 -18 -13 -21 4 -4 1 -16 -6 -26 -17 -25 -97 -79 -116 -79 -8 0
-29 -12 -45 -27 -16 -16 -44 -38 -63 -50 -100 -68 -182 -174 -191 -244 -1 -3
-14 -23 -31 -44 -31 -39 -37 -55 -20 -55 6 0 10 5 10 10 0 6 11 22 25 36 14
14 25 29 25 34 0 6 18 9 40 8 43 -1 47 -7 28 -39 -26 -43 -66 -78 -99 -87 -28
-9 -17 -10 66 -11 57 -1 126 -8 160 -17 74 -20 212 -24 242 -6 111 62 495 68
594 8 29 -16 36 -25 29 -36 -9 -14 -14 -7 -11 13 0 4 -6 7 -14 7 -10 0 -15
-10 -15 -27 0 -56 -11 -74 -39 -71 -21 2 -27 9 -29 36 -2 23 -11 36 -30 46
-66 34 -242 46 -358 25 -79 -14 -129 -44 -143 -83 l-11 -31 5 33 c3 24 1 32
-10 32 -8 0 -15 5 -15 10 0 6 -22 10 -49 10 -48 0 -50 -1 -62 -35 -12 -31 -14
-33 -21 -16 -28 75 -327 83 -429 10 -34 -24 -41 -71 -23 -155 15 -73 45 -137
79 -166 l25 -21 -21 -15 c-17 -12 -18 -16 -8 -23 11 -7 10 -9 -3 -9 -17 0 -23
-12 -19 -34 1 -5 -4 -4 -11 2 -11 8 -14 7 -16 -9 -5 -55 3 -183 12 -198 6 -10
5 -12 -3 -7 -8 5 -11 -3 -10 -31 1 -21 -1 -47 -5 -58 -6 -14 -5 -16 2 -7 6 10
11 -2 16 -40 12 -89 36 -167 77 -253 51 -105 85 -144 180 -211 81 -57 110 -93
128 -158 9 -36 8 -42 -30 -98 -23 -33 -52 -85 -66 -116 -44 -100 -123 -327
-119 -339 3 -7 -8 -51 -24 -99 -17 -48 -30 -95 -29 -103 0 -14 1 -14 6 -1 3 8
11 20 18 25 7 6 16 28 19 50 10 62 18 56 12 -10 l-6 -60 15 50 14 50 -4 -65
c-5 -70 0 -70 15 1 9 41 9 41 4 -16 -6 -75 -25 -168 -36 -175 -4 -3 -1 -28 6
-55 19 -70 18 -67 17 -97 -1 -27 -21 -41 -21 -15 0 7 -9 30 -20 52 -11 21 -23
54 -26 72 -13 70 -74 15 -92 -84 -8 -38 -10 -41 -11 -17 -2 51 67 372 103 484
19 58 53 150 75 205 22 55 33 90 23 77 -9 -12 -53 -41 -97 -63 -116 -60 -288
-177 -380 -259 -223 -199 -219 -193 -259 -390 -21 -105 -24 -141 -19 -229 9
-150 -15 -535 -40 -656 -13 -63 -20 -133 -19 -190 0 -49 1 -200 1 -334 0 -178
5 -266 16 -327 18 -96 10 -175 -29 -284 -15 -40 -28 -111 -35 -184 -8 -79 -19
-135 -33 -165 -36 -80 -58 -163 -73 -272 -10 -77 -33 -162 -84 -315 -103 -309
-177 -581 -187 -693 -3 -41 -17 -92 -35 -132 -16 -37 -50 -141 -74 -232 -25
-90 -47 -172 -51 -181 -6 -15 156 -16 2085 -16 1150 0 2091 3 2091 6 0 3 11
92 24 197 14 106 29 271 35 367 34 537 42 644 52 735 14 126 5 338 -20 476
-17 94 -17 113 -6 165 24 102 36 259 34 422 -1 105 2 167 10 187 42 102 61
299 41 419 -6 40 -6 82 1 126 10 70 -2 278 -21 350 -12 46 -40 289 -40 349 0
75 -46 278 -80 347 -31 64 -122 209 -160 254 -11 14 -43 52 -70 86 -27 33 -69
74 -92 89 -24 16 -59 43 -78 61 -19 18 -61 48 -92 66 -345 202 -727 445 -743
474 -5 11 -26 37 -45 59 -53 59 -96 125 -124 189 -20 46 -32 60 -62 72 -20 8
-38 13 -40 11 -2 -2 2 -20 11 -40 l15 -35 -75 -85 c-41 -47 -95 -102 -119
-123 -25 -21 -43 -41 -41 -45 3 -4 -15 -26 -40 -50 -24 -23 -43 -46 -42 -50 3
-12 -74 -110 -133 -169 -31 -30 -46 -47 -35 -37 37 30 40 18 5 -18 -19 -19
-35 -42 -36 -51 -2 -9 -14 -28 -27 -43 -14 -14 -28 -35 -31 -47 -4 -11 -17
-31 -30 -43 -14 -13 -22 -29 -20 -36 3 -6 -38 -50 -91 -96 -52 -46 -95 -85
-95 -86 0 -12 26 5 78 53 34 31 62 52 62 47 0 -5 -12 -20 -26 -34 -15 -13 -39
-41 -54 -61 -25 -35 -28 -36 -49 -22 -11 8 -21 21 -21 27 0 7 43 48 95 91 52
44 93 81 91 84 -3 2 -46 -32 -97 -77 -90 -80 -92 -81 -103 -59 -11 22 -2 31
151 162 90 76 162 141 159 143 -2 3 -75 -55 -162 -129 -87 -73 -160 -131 -162
-130 -10 7 -22 -24 -20 -53 0 -23 2 -25 5 -7 2 12 9 22 15 22 10 0 6 -27 -9
-66 -4 -11 -3 -15 4 -11 6 4 0 -19 -13 -51 -13 -31 -24 -66 -24 -77 l-1 -20
-10 20 c-9 18 -9 18 -5 -3 2 -13 -9 -75 -25 -139 -16 -63 -29 -120 -29 -126 0
-25 11 6 30 84 25 100 69 240 80 253 5 4 -3 -29 -16 -75 -13 -46 -23 -88 -21
-92 1 -5 15 32 30 82 15 51 25 97 21 103 -5 7 -2 8 6 3 10 -6 12 -2 7 15 -4
15 -3 20 4 13 7 -7 2 -41 -14 -103 -30 -111 -20 -107 18 8 32 98 41 105 16 12
-17 -62 -128 -288 -157 -321 -8 -8 -14 -20 -14 -25 0 -5 -9 -25 -19 -45 -79
-147 -220 -432 -257 -519 -25 -58 -49 -114 -54 -125 -39 -85 -138 -368 -185
-530 -15 -49 -31 -94 -36 -100 -5 -5 -9 -20 -9 -35 -1 -23 -2 -23 -12 -6 -25
43 11 235 73 391 12 30 51 183 60 237 13 80 20 340 10 378 -8 27 -9 15 -6 -55
5 -99 0 -102 -15 -10 l-9 60 4 -70 c3 -38 7 -92 10 -120 4 -38 3 -45 -5 -30
-7 14 -8 2 -4 -45 7 -71 0 -77 -15 -14 -8 33 -9 28 -6 -36 l4 -75 -18 85 c-23
104 -26 79 -6 -55 17 -120 17 -132 -1 -80 l-14 40 4 -70 c5 -75 1 -76 -14 -4
-9 41 -9 40 -5 -21 3 -53 2 -59 -6 -35 -18 55 -13 213 11 320 13 55 24 111 25
125 1 14 5 35 9 48 4 13 2 35 -6 52 -19 43 -30 37 -12 -6 8 -20 13 -39 10 -42
-3 -3 -6 -1 -6 4 0 6 -7 19 -15 30 -14 17 -14 15 0 -20 20 -51 19 -57 -5 -21
-26 40 -26 12 1 -31 11 -19 18 -34 16 -34 -3 0 -16 17 -28 37 -13 20 -25 31
-27 25 -2 -7 6 -28 18 -47 12 -19 19 -35 16 -35 -4 0 -15 15 -26 33 -21 34
-28 21 -8 -16 10 -21 10 -21 -7 -7 -17 14 -18 13 -11 -13 5 -21 4 -27 -5 -21
-9 5 -10 1 -7 -14 4 -12 3 -20 -2 -17 -4 3 -10 14 -13 25 -3 11 -2 18 2 16 4
-3 7 10 8 28 0 18 15 62 33 98 l32 65 -21 39 c-21 41 -28 34 -11 -12 13 -34 4
-45 -10 -13 -10 24 -10 24 -7 -3 2 -15 0 -25 -4 -22 -8 5 -3 143 6 191 3 14
17 25 38 32 18 6 48 26 66 45 30 31 32 37 26 80 -5 31 -4 46 4 46 6 0 11 8 12
18 1 11 4 8 8 -8 l7 -25 7 28 c4 15 12 25 17 22 6 -3 10 1 10 10 0 22 50 178
61 189 15 16 10 26 -8 20 -12 -4 -10 1 7 16 22 19 23 21 4 15 -14 -3 -21 -1
-21 9 0 9 10 14 25 13 23 -2 28 5 49 63 22 59 23 77 20 196 l-4 132 23 -2 c23
-1 24 -5 26 -76 2 -96 -2 -164 -11 -198 -5 -15 -7 19 -5 78 l2 105 -7 -95 c-9
-98 -32 -175 -96 -316 -21 -46 -35 -94 -38 -135 l-6 -64 10 55 c17 92 20 103
25 98 2 -3 0 -38 -6 -79 -37 -275 -60 -502 -60 -594 0 -147 12 -125 15 27 2
68 17 231 34 363 35 267 38 285 41 235 2 -32 3 -30 14 20 7 30 18 65 25 78 6
12 9 28 5 35 -5 9 -4 9 5 1 9 -8 8 -19 -4 -47 -8 -20 -15 -56 -15 -79 0 -24
-7 -97 -15 -163 -8 -65 -14 -128 -14 -140 2 -31 26 137 37 255 7 65 18 122 30
150 25 55 27 51 7 -14 -17 -56 -19 -78 -5 -56 5 8 10 11 10 6 0 -4 9 2 19 15
11 13 17 28 14 33 -3 4 -10 2 -15 -5 -8 -11 -9 -11 -6 -1 2 8 8 13 13 13 6 0
15 10 21 21 9 17 11 11 8 -33 l-4 -54 15 64 c8 36 18 67 22 70 3 3 3 -5 -1
-19 -4 -14 -9 -56 -13 -95 -4 -51 -10 -74 -24 -85 -14 -11 -20 -33 -23 -90
l-5 -75 13 75 c11 60 14 67 15 35 0 -22 -3 -65 -8 -95 -23 -132 -23 -129 -6
-80 9 25 22 92 30 149 7 57 17 106 20 109 6 6 3 -31 -11 -148 -3 -25 -3 -43 0
-40 3 3 14 66 26 140 21 139 55 306 45 220 -8 -65 -22 -163 -35 -253 -6 -44
-9 -81 -6 -84 2 -3 7 17 11 44 3 26 10 68 15 93 5 25 17 91 26 148 9 56 19
100 22 97 3 -2 -1 -40 -8 -82 -27 -171 -51 -301 -60 -334 -15 -51 -11 -60 7
-14 8 22 21 74 29 115 36 194 54 296 54 309 0 8 3 12 6 8 6 -6 2 -37 -37 -255
-11 -63 -18 -116 -15 -119 2 -3 8 12 11 33 4 22 15 82 26 134 10 52 26 138 36
190 9 52 19 87 21 78 3 -15 -38 -262 -54 -323 -5 -19 -4 -19 7 -2 12 20 81
398 74 405 -2 2 -8 -11 -14 -29 -16 -57 -13 1 4 66 10 40 24 68 43 84 15 13
54 47 87 76 33 29 115 98 183 154 67 56 122 104 122 107 0 8 -155 -119 -310
-253 -69 -60 -86 -73 -92 -73 -25 0 11 33 276 253 135 112 174 147 146 131
-17 -9 -304 -248 -336 -279 -54 -52 -104 -87 -104 -71 0 9 268 233 445 374
267 212 445 362 445 375 -1 7 -5 6 -13 -3 -17 -23 -218 -187 -394 -324 -83
-64 -228 -182 -322 -261 l-170 -144 -7 34 c-3 19 -10 32 -15 29 -5 -3 -9 0 -9
5 0 6 3 11 8 11 4 0 18 10 32 23 42 39 370 308 465 382 113 87 372 303 380
315 4 6 2 10 -4 10 -5 0 -11 -3 -13 -8 -5 -12 -168 -147 -353 -292 -187 -146
-269 -214 -413 -337 -87 -75 -116 -93 -97 -64 11 19 182 160 526 436 198 159
198 159 179 149 -8 -4 -55 -40 -105 -78 -49 -39 -107 -85 -129 -101 -33 -26
-71 -57 -151 -124 -11 -9 -29 -23 -41 -31 -42 -30 -268 -222 -272 -232 -6 -13
-22 -9 -22 6 0 8 -5 16 -11 18 -7 2 14 26 45 52 31 27 59 46 62 43 6 -6 -4
-16 -79 -78 -12 -10 -18 -18 -14 -19 5 0 48 33 95 73 48 40 168 138 267 217
99 80 182 147 185 150 3 3 30 24 61 48 31 23 65 52 75 64 10 12 -10 -2 -46
-30 -218 -172 -441 -351 -479 -384 -44 -38 -75 -52 -50 -22 7 9 155 130 328
269 174 139 343 278 376 310 l60 57 -75 -61 c-41 -34 -147 -119 -235 -188 -88
-70 -254 -204 -368 -298 -229 -187 -254 -205 -279 -205 -29 0 -20 17 12 23 16
4 56 30 88 59 32 29 73 64 91 78 19 14 39 30 45 35 6 6 64 53 129 104 64 52
115 96 113 99 -3 2 -40 -24 -83 -59 -123 -100 -296 -242 -322 -266 l-25 -22
-15 22 c-8 12 -15 23 -16 24 -6 10 -121 -65 -143 -93 -15 -19 -32 -34 -38 -34
-31 0 74 85 171 138 61 33 133 75 161 93 28 18 59 34 69 35 9 1 29 13 44 27
44 40 237 182 217 159 -11 -12 -15 -22 -9 -22 13 0 45 35 37 42 -3 3 3 5 13 5
11 -1 17 4 15 13 -2 8 0 12 4 8 7 -8 38 12 89 57 17 15 85 70 153 122 67 52
130 106 140 121 14 22 17 48 16 148 -1 105 1 123 15 127 17 4 111 230 137 331
31 117 -17 226 -98 226 -34 0 -36 12 -24 195 13 218 -21 377 -98 461 -20 21
-36 42 -36 46 0 4 -46 42 -102 84 -101 76 -257 154 -348 174 -109 24 -153 31
-225 35 -44 2 -84 3 -90 0z m420 -171 c57 -10 87 -28 73 -42 -9 -9 -7 -12 8
-13 10 -1 24 0 29 1 6 1 7 -1 4 -4 -3 -4 9 -23 27 -43 50 -54 43 -66 -18 -33
-28 15 -57 26 -65 23 -7 -3 -13 0 -13 6 0 6 -3 10 -7 9 -5 -1 -21 4 -38 11
-16 7 -43 14 -59 17 -48 6 -60 13 -78 43 -15 28 -15 30 0 34 21 5 87 1 137 -9z
m-795 -348 c0 -2 -7 -7 -16 -10 -8 -3 -12 -2 -9 4 6 10 25 14 25 6z m-23 -92
c-3 -3 -12 -4 -19 -1 -8 3 -5 6 6 6 11 1 17 -2 13 -5z m1106 -237 c26 -17 47
-32 47 -34 0 -7 -72 36 -100 58 -30 25 -11 16 53 -24z m-863 -221 c0 -42 -116
-186 -150 -186 -9 0 -22 -6 -29 -12 -10 -11 -12 -9 -9 7 1 11 17 26 34 34 18
7 41 30 52 50 32 56 102 130 102 107z m-395 -215 c3 -5 1 -12 -5 -16 -5 -3
-10 1 -10 9 0 18 6 21 15 7z m-54 -34 c-10 -9 -11 -8 -5 6 3 10 9 15 12 12 3
-3 0 -11 -7 -18z m121 -430 c2 -37 0 -67 -4 -67 -5 0 -7 44 -6 98 1 100 5 88
10 -31z m201 90 c-4 -21 -16 -25 -52 -18 -2 1 4 10 14 21 25 27 43 26 38 -3z
m100 -666 c4 -29 2 -40 -4 -30 -8 13 -14 88 -5 78 2 -2 6 -24 9 -48z m164
-443 c-2 -18 -4 -4 -4 32 0 36 2 50 4 33 2 -18 2 -48 0 -65z m-169 -40 l-2
-123 -5 110 c-6 103 -4 135 5 135 2 0 3 -55 2 -122z m85 -20 c-9 -61 -9 -60
-8 42 0 87 2 97 9 62 5 -25 5 -67 -1 -104z m31 90 c5 -32 4 -48 -3 -48 -7 0
-11 22 -11 52 0 62 5 60 14 -4z m23 -55 c-2 -21 -4 -4 -4 37 0 41 2 58 4 38 2
-21 2 -55 0 -75z m-108 -5 c0 -57 -4 -111 -8 -122 -4 -10 -7 36 -7 103 1 66 4
121 8 121 5 0 8 -46 7 -102z m29 30 c1 -40 -2 -89 -7 -108 -6 -26 -8 -7 -8 73
0 119 13 149 15 35z m49 -75 c-3 -10 -5 -2 -5 17 0 19 2 27 5 18 2 -10 2 -26
0 -35z m20 -15 c-3 -8 -6 -5 -6 6 -1 11 2 17 5 13 3 -3 4 -12 1 -19z m-320
-50 c-3 -7 -5 -2 -5 12 0 14 2 19 5 13 2 -7 2 -19 0 -25z m227 -42 c-3 -15 -8
-25 -11 -23 -2 3 -1 17 3 31 3 15 8 25 11 23 2 -3 1 -17 -3 -31z m-47 -8 c-3
-8 -6 -5 -6 6 -1 11 2 17 5 13 3 -3 4 -12 1 -19z m13 -25 c-11 -17 -11 -17 -6
0 3 10 6 24 7 30 0 9 2 9 5 0 3 -7 0 -20 -6 -30z m-60 -50 c-11 -17 -11 -17
-6 0 3 10 6 24 7 30 0 9 2 9 5 0 3 -7 0 -20 -6 -30z m197 -15 c-3 -7 -5 -2 -5
12 0 14 2 19 5 13 2 -7 2 -19 0 -25z m-115 -43 c-8 -16 -9 -16 -15 -1 -4 10
-3 15 3 11 6 -3 10 -1 10 6 0 7 3 10 6 6 3 -3 2 -13 -4 -22z m-109 -10 c-3 -9
-8 -14 -10 -11 -3 3 -2 9 2 15 9 16 15 13 8 -4z m57 -20 c0 -5 -5 -3 -10 5 -5
8 -10 20 -10 25 0 6 5 3 10 -5 5 -8 10 -19 10 -25z m-95 -74 c-8 -17 -18 -31
-21 -31 -3 0 -3 4 0 9 3 4 10 21 16 36 6 15 13 25 16 22 3 -3 -2 -19 -11 -36z
m176 -36 c-8 -46 -9 -47 -10 -13 -1 34 8 73 15 66 2 -2 -1 -26 -5 -53z m-334
-247 c-3 -7 -5 -2 -5 12 0 14 2 19 5 13 2 -7 2 -19 0 -25z m-100 -855 c-3 -10
-5 -4 -5 12 0 17 2 24 5 18 2 -7 2 -21 0 -30z m10 -65 c-3 -7 -5 -2 -5 12 0
14 2 19 5 13 2 -7 2 -19 0 -25z m30 -10 c-3 -8 -6 -5 -6 6 -1 11 2 17 5 13 3
-3 4 -12 1 -19z m-552 -287 c3 -5 1 -12 -5 -16 -5 -3 -10 1 -10 9 0 18 6 21
15 7z m2 -153 c-3 -8 -6 -5 -6 6 -1 11 2 17 5 13 3 -3 4 -12 1 -19z m13 -978
c0 -5 -7 -7 -15 -4 -8 4 -15 8 -15 10 0 2 7 4 15 4 8 0 15 -4 15 -10z"/>
<path d="M5626 6962 c-3 -5 -8 -27 -12 -48 -3 -22 -9 -55 -13 -74 -4 -19 -8
-66 -9 -105 -2 -99 14 -53 22 65 3 53 10 111 16 130 10 33 8 50 -4 32z"/>
<path d="M5935 6650 c11 -5 27 -9 35 -9 9 0 8 4 -5 9 -11 5 -27 9 -35 9 -9 0
-8 -4 5 -9z"/>
<path d="M5506 6545 c-3 -8 -1 -15 4 -15 6 0 10 7 10 15 0 8 -2 15 -4 15 -2 0
-6 -7 -10 -15z"/>
<path d="M5538 6364 c-9 -15 -8 -164 1 -164 5 0 11 24 15 54 3 30 8 60 11 68
6 16 -19 55 -27 42z"/>
<path d="M6899 5443 c-13 -16 -12 -17 4 -4 9 7 17 15 17 17 0 8 -8 3 -21 -13z"/>
<path d="M7020 5320 c-9 -6 -10 -10 -3 -10 6 0 15 5 18 10 8 12 4 12 -15 0z"/>
<path d="M6792 5250 c-41 -33 -71 -60 -67 -60 7 0 145 110 145 116 0 8 -5 4
-78 -56z"/>
<path d="M6969 5279 l-24 -20 28 17 c15 9 27 18 27 20 0 8 -8 4 -31 -17z"/>
<path d="M6819 5233 c-13 -17 -13 -17 6 -3 11 8 22 16 24 17 2 2 0 3 -6 3 -6
0 -17 -8 -24 -17z"/>
<path d="M6889 5213 c-13 -16 -12 -17 4 -4 9 7 17 15 17 17 0 8 -8 3 -21 -13z"/>
<path d="M6705 5144 c-33 -25 -69 -53 -80 -62 -11 -9 -54 -44 -95 -77 -41 -33
-77 -62 -80 -65 -3 -3 -34 -29 -68 -58 -35 -28 -60 -52 -55 -52 9 0 75 53 113
89 8 8 83 68 165 134 158 125 172 137 165 137 -3 0 -32 -21 -65 -46z"/>
<path d="M6785 5134 c-76 -60 -88 -72 -65 -59 21 12 140 106 140 111 0 7 -4 4
-75 -52z"/>
<path d="M6640 5133 c-30 -25 -115 -95 -188 -155 -74 -61 -152 -128 -175 -149
-23 -21 -45 -39 -49 -39 -5 0 -8 -5 -8 -11 0 -9 136 100 205 164 11 11 74 62
140 115 139 111 153 122 140 121 -6 0 -35 -21 -65 -46z"/>
<path d="M6828 5132 c-123 -102 -129 -110 -30 -36 56 42 102 78 102 80 0 12
-21 -1 -72 -44z"/>
<path d="M6251 5033 c-39 -31 -69 -59 -66 -62 4 -3 9 -1 13 5 4 5 35 32 70 58
56 45 69 56 58 56 -1 0 -35 -25 -75 -57z"/>
<path d="M6629 4937 c-223 -180 -369 -307 -369 -320 0 -6 17 5 38 24 50 48
326 278 435 363 48 37 87 70 87 72 0 13 -32 -10 -191 -139z"/>
<path d="M6669 5003 c-13 -16 -12 -17 4 -4 9 7 17 15 17 17 0 8 -8 3 -21 -13z"/>
<path d="M6159 4983 c-13 -16 -12 -17 4 -4 16 13 21 21 13 21 -2 0 -10 -8 -17
-17z"/>
<path d="M6739 4992 c-2 -5 -39 -37 -81 -71 -87 -70 -104 -90 -30 -36 75 55
128 103 121 110 -4 3 -9 2 -10 -3z"/>
<path d="M6145 4949 c-11 -16 -1 -19 13 -3 7 8 8 14 3 14 -5 0 -13 -5 -16 -11z"/>
<path d="M6510 4799 l-55 -51 52 42 c47 37 70 60 61 60 -2 0 -28 -23 -58 -51z"/>
<path d="M6599 4833 c-13 -16 -12 -17 4 -4 9 7 17 15 17 17 0 8 -8 3 -21 -13z"/>
<path d="M6263 4780 c-23 -22 -39 -40 -35 -40 10 1 96 80 86 80 -5 0 -28 -18
-51 -40z"/>
<path d="M6520 4769 l-55 -51 52 42 c46 37 71 61 61 60 -2 0 -28 -23 -58 -51z"/>
<path d="M6404 4712 c-22 -20 -58 -52 -79 -69 -21 -18 -34 -33 -29 -33 9 0
163 139 154 139 -3 0 -23 -16 -46 -37z"/>
<path d="M6490 4668 c-36 -34 -49 -48 -30 -33 58 46 102 86 99 90 -2 1 -33
-24 -69 -57z"/>
<path d="M6256 4583 c-2 -10 -12 -62 -21 -116 -9 -54 -25 -137 -35 -184 -10
-47 -14 -81 -9 -76 6 6 23 80 39 164 16 85 33 171 38 192 9 36 -2 54 -12 20z"/>
<path d="M6372 4564 l-37 -36 43 33 c23 18 42 34 42 36 0 9 -14 0 -48 -33z"/>
<path d="M5711 4404 c-7 -36 -10 -68 -8 -71 3 -2 10 26 16 63 7 36 10 68 8 71
-3 2 -10 -26 -16 -63z"/>
<path d="M6262 4440 c0 -14 2 -19 5 -12 2 6 2 18 0 25 -3 6 -5 1 -5 -13z"/>
<path d="M5742 4430 c0 -14 2 -19 5 -12 2 6 2 18 0 25 -3 6 -5 1 -5 -13z"/>
<path d="M5762 4380 c0 -14 2 -19 5 -12 2 6 2 18 0 25 -3 6 -5 1 -5 -13z"/>
<path d="M6241 4344 c0 -11 3 -14 6 -6 3 7 2 16 -1 19 -3 4 -6 -2 -5 -13z"/>
<path d="M6241 4174 c0 -11 3 -14 6 -6 3 7 2 16 -1 19 -3 4 -6 -2 -5 -13z"/>
<path d="M5920 4128 c0 -24 -9 -110 -20 -193 -12 -82 -23 -166 -25 -185 -3
-19 4 1 14 45 11 44 26 135 35 202 9 67 16 125 17 130 4 21 -2 43 -11 43 -5 0
-10 -19 -10 -42z"/>
<path d="M5942 4023 c-14 -129 -9 -149 7 -26 7 48 14 98 17 111 2 12 1 22 -4
22 -5 0 -14 -48 -20 -107z"/>
<path d="M5871 4104 c0 -11 3 -14 6 -6 3 7 2 16 -1 19 -3 4 -6 -2 -5 -13z"/>
<path d="M5770 4065 c0 -14 2 -25 4 -25 2 0 6 11 8 25 3 14 1 25 -3 25 -5 0
-9 -11 -9 -25z"/>
<path d="M5847 3943 c-20 -160 -21 -203 -2 -89 16 91 29 226 23 226 -2 0 -12
-62 -21 -137z"/>
<path d="M5803 4025 c0 -22 2 -30 4 -17 2 12 2 30 0 40 -3 9 -5 -1 -4 -23z"/>
<path d="M6151 4014 c0 -11 3 -14 6 -6 3 7 2 16 -1 19 -3 4 -6 -2 -5 -13z"/>
<path d="M5793 3945 c0 -22 2 -30 4 -17 2 12 2 30 0 40 -3 9 -5 -1 -4 -23z"/>
<path d="M5962 3945 c0 -16 2 -22 5 -12 2 9 2 23 0 30 -3 6 -5 -1 -5 -18z"/>
<path d="M6071 3888 c-7 -35 -15 -74 -18 -88 -3 -14 -3 -22 0 -19 9 7 40 159
34 165 -2 3 -10 -24 -16 -58z"/>
<path d="M5740 3929 c0 -5 -4 -7 -10 -4 -14 8 -13 -18 1 -32 6 -6 9 -17 7 -25
-3 -8 -11 -2 -22 17 -14 25 -16 26 -10 5 10 -36 27 -50 42 -34 9 10 10 19 2
33 -13 25 -13 34 0 26 6 -3 7 1 4 9 -7 18 -14 21 -14 5z"/>
<path d="M5782 3870 c0 -19 2 -27 5 -17 2 9 2 25 0 35 -3 9 -5 1 -5 -18z"/>
<path d="M5681 3885 c0 -5 8 -26 19 -45 11 -19 19 -30 19 -25 0 6 -8 26 -19
45 -11 19 -19 31 -19 25z"/>
<path d="M5660 3872 c0 -17 40 -95 46 -89 3 3 -6 27 -20 54 -14 26 -25 42 -26
35z"/>
<path d="M5921 3864 c0 -11 3 -14 6 -6 3 7 2 16 -1 19 -3 4 -6 -2 -5 -13z"/>
<path d="M5961 3844 c0 -11 3 -14 6 -6 3 7 2 16 -1 19 -3 4 -6 -2 -5 -13z"/>
<path d="M5862 3830 c0 -14 2 -19 5 -12 2 6 2 18 0 25 -3 6 -5 1 -5 -13z"/>
<path d="M5650 3825 c0 -13 32 -66 36 -62 6 6 -23 67 -31 67 -3 0 -5 -2 -5 -5z"/>
<path d="M5773 3795 c0 -22 2 -30 4 -17 2 12 2 30 0 40 -3 9 -5 -1 -4 -23z"/>
<path d="M5947 3785 c-4 -22 -6 -58 -6 -80 1 -34 3 -32 10 20 11 69 7 121 -4
60z"/>
<path d="M5610 3793 c0 -21 31 -93 41 -93 5 0 9 3 9 8 -1 14 -49 97 -50 85z"/>
<path d="M5640 3784 c1 -16 29 -60 29 -44 0 8 -6 24 -14 34 -8 11 -15 16 -15
10z"/>
<path d="M5972 3755 c0 -16 2 -22 5 -12 2 9 2 23 0 30 -3 6 -5 -1 -5 -18z"/>
<path d="M5763 3705 c0 -22 2 -30 4 -17 2 12 2 30 0 40 -3 9 -5 -1 -4 -23z"/>
<path d="M5862 3630 c-1 -47 -6 -102 -11 -122 -5 -21 -5 -38 -1 -38 12 0 22
95 18 175 l-4 70 -2 -85z"/>
<path d="M5911 3674 c0 -11 3 -14 6 -6 3 7 2 16 -1 19 -3 4 -6 -2 -5 -13z"/>
<path d="M5813 3610 c0 -41 2 -58 4 -37 2 20 2 54 0 75 -2 20 -4 3 -4 -38z"/>
<path d="M5832 3620 c0 -19 2 -27 5 -17 2 9 2 25 0 35 -3 9 -5 1 -5 -18z"/>
<path d="M5951 3634 c0 -11 3 -14 6 -6 3 7 2 16 -1 19 -3 4 -6 -2 -5 -13z"/>
<path d="M5763 3565 c0 -44 2 -61 4 -37 2 23 2 59 0 80 -2 20 -4 1 -4 -43z"/>
<path d="M5911 3624 c0 -11 3 -14 6 -6 3 7 2 16 -1 19 -3 4 -6 -2 -5 -13z"/>
<path d="M5942 3580 c0 -14 2 -19 5 -12 2 6 2 18 0 25 -3 6 -5 1 -5 -13z"/>
<path d="M5702 3460 c0 -14 2 -19 5 -12 2 6 2 18 0 25 -3 6 -5 1 -5 -13z"/>
<path d="M5763 3325 c0 -22 2 -30 4 -17 2 12 2 30 0 40 -3 9 -5 -1 -4 -23z"/>
<path d="M5651 3254 c0 -11 3 -14 6 -6 3 7 2 16 -1 19 -3 4 -6 -2 -5 -13z"/>
</g>
</svg>
